<svg width="603" height="212" viewBox="0 0 603 212" fill="none" xmlns="http://www.w3.org/2000/svg">
<path d="M197.295 172.44H170.511V207H104.559V172.44H0.0146255V129.24L85.5506 5.39999H155.247L79.2146 119.736H106.575V88.92H170.511V119.736H197.295V172.44ZM298.32 211.608C280.464 211.608 264.624 207.48 250.8 199.224C237.168 190.776 226.416 178.68 218.544 162.936C210.864 147 207.024 128.088 207.024 106.2C207.024 84.312 210.864 65.496 218.544 49.752C226.416 33.816 237.168 21.72 250.8 13.464C264.624 5.01599 280.464 0.791994 298.32 0.791994C316.176 0.791994 331.92 5.01599 345.552 13.464C359.376 21.72 370.128 33.816 377.808 49.752C385.68 65.496 389.616 84.312 389.616 106.2C389.616 128.088 385.68 147 377.808 162.936C370.128 178.68 359.376 190.776 345.552 199.224C331.92 207.48 316.176 211.608 298.32 211.608ZM298.32 157.176C313.68 157.176 321.36 140.184 321.36 106.2C321.36 72.216 313.68 55.224 298.32 55.224C282.96 55.224 275.28 72.216 275.28 106.2C275.28 140.184 282.96 157.176 298.32 157.176ZM602.232 172.44H575.448V207H509.496V172.44H404.952V129.24L490.488 5.39999H560.184L484.152 119.736H511.512V88.92H575.448V119.736H602.232V172.44Z" fill="white"/>
</svg>
